<?xml version="1.0" encoding="utf-8"?>
<svg id="master-artboard" viewBox="0 0 1400 980" version="1.1" xmlns="http://www.w3.org/2000/svg" x="0px" y="0px" style="enable-background:new 0 0 1400 980;" width="1400px" height="980px">

<g transform="matrix(1, 0, 0, 1, -2.842170943040401e-14, -7.105427357601002e-15)">
		<path class="st0" d="M375.4,406.6l16.1-16.1c-4.5-4.8-7.7-10.4-9.5-16.4l-22,5.9C362.8,389.7,368,398.9,375.4,406.6z" style="opacity: 0.4; fill: rgb(247, 247, 255);"/>
		<path class="st1" d="M377.4,315.2l16.1,16.1c4.8-4.5,10.4-7.7,16.4-9.5l-5.9-22C394.3,302.6,385.2,307.7,377.4,315.2z" style="opacity: 0.7; fill: rgb(247, 247, 255);"/>
		<path class="st2" d="M382,349.7c1.8-5.9,5-11.6,9.5-16.4l-16.1-16.1c-7.4,7.8-12.6,16.9-15.4,26.6L382,349.7z" style="opacity: 0.6; fill: rgb(247, 247, 255);"/>
		<path class="st3" d="M434.4,321.8c5.9,1.8,11.6,5,16.4,9.5l16.1-16.1c-7.8-7.4-16.9-12.6-26.6-15.4L434.4,321.8z" style="opacity: 0.9; fill: rgb(247, 247, 255);"/>
		<path class="st4" d="M409.9,402c-5.9-1.8-11.6-5-16.4-9.5l-16.1,16.1c7.8,7.4,16.9,12.6,26.6,15.4L409.9,402z" style="opacity: 0.3; fill: rgb(247, 247, 255);"/>
		<path class="st5" d="M381.3,371.4c-1.4-6.2-1.4-12.7,0-18.9l-22-5.9c-2.5,10.1-2.5,20.6,0,30.7L381.3,371.4z" style="opacity: 0.5; fill: rgb(247, 247, 255);"/>
		<path class="st6" d="M412.7,321.1c6.2-1.4,12.7-1.4,18.9,0l5.9-22c-10.1-2.5-20.6-2.5-30.7,0L412.7,321.1z" style="opacity: 0.8; fill: rgb(247, 247, 255);"/>
		<path class="st7" d="M431.6,402.7c-6.2,1.4-12.7,1.4-18.9,0l-5.9,22c10.1,2.5,20.6,2.5,30.7,0L431.6,402.7z" style="opacity: 0.25; fill: rgb(247, 247, 255);"/>
		<path class="st8" d="M466.9,408.6l-16.1-16.1c-4.8,4.5-10.4,7.7-16.4,9.5l5.9,22C450,421.2,459.1,416.1,466.9,408.6z" style="opacity: 0.2; fill: rgb(247, 247, 255);"/>
		<g class="st9" style="opacity: 0.15;">
			<g>
				<defs>
					<filter id="Adobe_OpacityMaskFilter" filterUnits="userSpaceOnUse" x="452.8" y="317.2" width="31.5" height="32.5">
						<feFlood style="flood-color:white;flood-opacity:1" result="back"/>
						<feBlend in="SourceGraphic" in2="back" mode="normal"/>
					</filter>
				</defs>
				<mask maskUnits="userSpaceOnUse" x="452.8" y="317.2" width="31.5" height="32.5" id="SVGID_1_">
					<g class="st10" style="filter: url('#Adobe_OpacityMaskFilter');">
						<defs>
							<filter id="Adobe_OpacityMaskFilter_1_" filterUnits="userSpaceOnUse" x="452.8" y="317.2" width="31.5" height="32.5">
								<feFlood style="flood-color:white;flood-opacity:1" result="back"/>
								<feBlend in="SourceGraphic" in2="back" mode="normal"/>
							</filter>
						</defs>
						<mask maskUnits="userSpaceOnUse" x="452.8" y="317.2" width="31.5" height="32.5" id="SVGID_1_">
							<g class="st11" style="filter: url('#Adobe_OpacityMaskFilter_1_');">
							</g>
						</mask>
						
							<linearGradient id="SVGID_2_" gradientUnits="userSpaceOnUse" x1="535.8759" y1="-302.9598" x2="482.0916" y2="-361.4209" gradientTransform="matrix(0.7071 0.7071 -0.7071 0.7071 -127.2599 237.1331)">
							<stop offset="0" style="stop-color:#FFFFFF"/>
							<stop offset="1" style="stop-color:#000000"/>
						</linearGradient>
						<path class="st12" d="M468.9,317.2l-16.1,16.1c4.5,4.8,7.7,10.4,9.5,16.4l22-5.9C481.4,334.1,476.3,324.9,468.9,317.2z" style="mask: url('#SVGID_1_'); fill: url('#SVGID_2_');"/>
					</g>
				</mask>
				
					<linearGradient id="SVGID_3_" gradientUnits="userSpaceOnUse" x1="535.8759" y1="-302.9598" x2="482.0916" y2="-361.4209" gradientTransform="matrix(0.7071 0.7071 -0.7071 0.7071 -127.2599 237.1331)">
					<stop offset="0" style="stop-color:#414143"/>
					<stop offset="1" style="stop-color:#414143"/>
				</linearGradient>
				<path class="st13" d="M468.9,317.2l-16.1,16.1c4.5,4.8,7.7,10.4,9.5,16.4l22-5.9C481.4,334.1,476.3,324.9,468.9,317.2z" style="fill: rgb(247, 247, 255);"/>
			</g>
			<g>
				<defs>
					<filter id="Adobe_OpacityMaskFilter_2_" filterUnits="userSpaceOnUse" x="463" y="346.5" width="23.9" height="30.7">
						<feFlood style="flood-color:white;flood-opacity:1" result="back"/>
						<feBlend in="SourceGraphic" in2="back" mode="normal"/>
					</filter>
				</defs>
				<mask maskUnits="userSpaceOnUse" x="463" y="346.5" width="23.9" height="30.7" id="SVGID_4_">
					<g class="st14" style="filter: url('#Adobe_OpacityMaskFilter_2_');">
						<defs>
							<filter id="Adobe_OpacityMaskFilter_3_" filterUnits="userSpaceOnUse" x="463" y="346.5" width="23.9" height="30.7">
								<feFlood style="flood-color:white;flood-opacity:1" result="back"/>
								<feBlend in="SourceGraphic" in2="back" mode="normal"/>
							</filter>
						</defs>
						<mask maskUnits="userSpaceOnUse" x="463" y="346.5" width="23.9" height="30.7" id="SVGID_4_">
							<g class="st15" style="filter: url('#Adobe_OpacityMaskFilter_3_');">
							</g>
						</mask>
						
							<linearGradient id="SVGID_5_" gradientUnits="userSpaceOnUse" x1="541.1683" y1="-307.8288" x2="487.3838" y2="-366.2901" gradientTransform="matrix(0.7071 0.7071 -0.7071 0.7071 -127.2599 237.1331)">
							<stop offset="0" style="stop-color:#FFFFFF"/>
							<stop offset="1" style="stop-color:#000000"/>
						</linearGradient>
						<path class="st16" d="M463,352.4c1.4,6.2,1.4,12.7,0,18.9l22,5.9c2.5-10.1,2.5-20.6,0-30.7L463,352.4z" style="mask: url('#SVGID_4_'); fill: url('#SVGID_5_');"/>
					</g>
				</mask>
				
					<linearGradient id="SVGID_6_" gradientUnits="userSpaceOnUse" x1="541.1683" y1="-307.8288" x2="487.3838" y2="-366.2901" gradientTransform="matrix(0.7071 0.7071 -0.7071 0.7071 -127.2599 237.1331)">
					<stop offset="0" style="stop-color:#414143"/>
					<stop offset="1" style="stop-color:#414143"/>
				</linearGradient>
				<path class="st17" d="M463,352.4c1.4,6.2,1.4,12.7,0,18.9l22,5.9c2.5-10.1,2.5-20.6,0-30.7L463,352.4z" style="fill: rgb(247, 247, 255);"/>
			</g>
			<g>
				<defs>
					<filter id="Adobe_OpacityMaskFilter_4_" filterUnits="userSpaceOnUse" x="452.8" y="374.1" width="31.5" height="32.5">
						<feFlood style="flood-color:white;flood-opacity:1" result="back"/>
						<feBlend in="SourceGraphic" in2="back" mode="normal"/>
					</filter>
				</defs>
				<mask maskUnits="userSpaceOnUse" x="452.8" y="374.1" width="31.5" height="32.5" id="SVGID_7_">
					<g class="st18" style="filter: url('#Adobe_OpacityMaskFilter_4_');">
						<defs>
							<filter id="Adobe_OpacityMaskFilter_5_" filterUnits="userSpaceOnUse" x="452.8" y="374.1" width="31.5" height="32.5">
								<feFlood style="flood-color:white;flood-opacity:1" result="back"/>
								<feBlend in="SourceGraphic" in2="back" mode="normal"/>
							</filter>
						</defs>
						<mask maskUnits="userSpaceOnUse" x="452.8" y="374.1" width="31.5" height="32.5" id="SVGID_7_">
							<g class="st19" style="filter: url('#Adobe_OpacityMaskFilter_5_');">
							</g>
						</mask>
						
							<linearGradient id="SVGID_8_" gradientUnits="userSpaceOnUse" x1="537.3076" y1="-304.277" x2="483.5232" y2="-362.7382" gradientTransform="matrix(0.7071 0.7071 -0.7071 0.7071 -127.2599 237.1331)">
							<stop offset="0" style="stop-color:#FFFFFF"/>
							<stop offset="1" style="stop-color:#000000"/>
						</linearGradient>
						<path class="st20" d="M462.2,374.1c-1.8,5.9-5,11.6-9.5,16.4l16.1,16.1c7.4-7.8,12.6-16.9,15.4-26.6L462.2,374.1z" style="mask: url('#SVGID_7_'); fill: url('#SVGID_8_');"/>
					</g>
				</mask>
				
					<linearGradient id="SVGID_9_" gradientUnits="userSpaceOnUse" x1="537.3076" y1="-304.277" x2="483.5232" y2="-362.7382" gradientTransform="matrix(0.7071 0.7071 -0.7071 0.7071 -127.2599 237.1331)">
					<stop offset="0" style="stop-color:#414143"/>
					<stop offset="1" style="stop-color:#414143"/>
				</linearGradient>
				<path class="st21" d="M462.2,374.1c-1.8,5.9-5,11.6-9.5,16.4l16.1,16.1c7.4-7.8,12.6-16.9,15.4-26.6L462.2,374.1z" style="fill: rgb(247, 247, 255);"/>
			</g>
		</g>
	</g><path class="st0" d="M104.7,411.8l16.1-16.1c-4.5-4.8-7.7-10.4-9.5-16.4l-22,5.9C92.2,394.9,97.3,404,104.7,411.8z" style="opacity: 0.4; fill: rgb(247, 247, 255); stroke: rgb(255, 255, 255);" transform="matrix(1, 0, 0, 1, -5.684341886080802e-14, -1.4210854715202004e-14)"/><path class="st4" d="M139.2,407.2c-5.9-1.8-11.6-5-16.4-9.5l-16.1,16.1c7.8,7.4,16.9,12.6,26.6,15.4L139.2,407.2z" style="opacity: 0.3; fill: rgb(247, 247, 255); stroke: rgb(255, 255, 255);" transform="matrix(1, 0, 0, 1, -5.684341886080802e-14, -1.4210854715202004e-14)"/><path class="st1" d="M106.7,320.3l16.1,16.1c4.8-4.5,10.4-7.7,16.4-9.5l-5.9-22C123.7,307.8,114.5,312.9,106.7,320.3z" style="opacity: 0.7; fill: rgb(247, 247, 255); stroke: rgb(255, 255, 255);" transform="matrix(1, 0, 0, 1, -5.684341886080802e-14, -1.4210854715202004e-14)"/><path class="st2" d="M111.4,354.9c1.8-5.9,5-11.6,9.5-16.4l-16.1-16.1c-7.4,7.8-12.6,16.9-15.4,26.6L111.4,354.9z" style="opacity: 0.6; fill: rgb(247, 247, 255); stroke: rgb(255, 255, 255);" transform="matrix(1, 0, 0, 1, -5.684341886080802e-14, -1.4210854715202004e-14)"/><defs>
			<filter id="Adobe_OpacityMaskFilter_6_" filterUnits="userSpaceOnUse" x="163.7" y="379.3" width="49.9" height="49.9">
				<feFlood style="flood-color:white;flood-opacity:1" result="back"/>
				<feBlend in="SourceGraphic" in2="back" mode="normal"/>
			</filter>
		</defs><mask maskUnits="userSpaceOnUse" x="163.7" y="379.3" width="49.9" height="49.9" id="SVGID_10_">
			<g class="st22" style="filter: url('#Adobe_OpacityMaskFilter_6_');">
				<defs>
					<filter id="Adobe_OpacityMaskFilter_7_" filterUnits="userSpaceOnUse" x="163.7" y="379.3" width="49.9" height="49.9">
						<feFlood style="flood-color:white;flood-opacity:1" result="back"/>
						<feBlend in="SourceGraphic" in2="back" mode="normal"/>
					</filter>
				</defs>
				<mask maskUnits="userSpaceOnUse" x="163.7" y="379.3" width="49.9" height="49.9" id="SVGID_10_">
					<g class="st23" style="filter: url('#Adobe_OpacityMaskFilter_7_');">
					</g>
				</mask>
				<linearGradient id="SVGID_11_" gradientUnits="userSpaceOnUse" x1="168.1133" y1="423.5458" x2="205.53" y2="382.6213">
					<stop offset="0" style="stop-color:#FFFFFF"/>
					<stop offset="1" style="stop-color:#000000"/>
				</linearGradient>
				<path class="st24" d="M169.6,429.2l-5.9-22c5.9-1.8,11.6-5,16.4-9.5l16.1,16.1C188.4,421.3,179.3,426.4,169.6,429.2z&#10;&#9;&#9;&#9;&#9;&#9; M191.6,379.3c-1.8,5.9-5,11.6-9.5,16.4l16.1,16.1c7.4-7.8,12.6-16.9,15.4-26.6L191.6,379.3z" style="mask: url('#SVGID_10_'); fill: url('#SVGID_11_');"/>
			</g>
		</mask><linearGradient id="SVGID_12_" gradientUnits="userSpaceOnUse" x1="168.1133" y1="423.5458" x2="205.53" y2="382.6213">
			<stop offset="0" style="stop-color:#414143"/>
			<stop offset="1" style="stop-color:#414143"/>
		</linearGradient><path class="st25" d="M169.6,429.2l-5.9-22c5.9-1.8,11.6-5,16.4-9.5l16.1,16.1C188.4,421.3,179.3,426.4,169.6,429.2z M191.6,379.3&#10;&#9;&#9;&#9;c-1.8,5.9-5,11.6-9.5,16.4l16.1,16.1c7.4-7.8,12.6-16.9,15.4-26.6L191.6,379.3z" style="opacity: 0.15; fill: rgb(247, 247, 255); stroke: rgb(255, 255, 255);" transform="matrix(1, 0, 0, 1, -5.684341886080802e-14, -1.4210854715202004e-14)"/><path class="st8" d="M160.9,407.9c-6.2,1.4-12.7,1.4-18.9,0l-5.9,22c10.1,2.5,20.6,2.5,30.7,0L160.9,407.9z" style="opacity: 0.2; fill: rgb(247, 247, 255); stroke: rgb(255, 255, 255);" transform="matrix(1, 0, 0, 1, -5.684341886080802e-14, -1.4210854715202004e-14)"/><path class="st5" d="M110.6,376.5c-1.4-6.2-1.4-12.7,0-18.9l-22-5.9c-2.5,10.1-2.5,20.6,0,30.7L110.6,376.5z" style="opacity: 0.5; fill: rgb(247, 247, 255); stroke: rgb(255, 255, 255);" transform="matrix(1, 0, 0, 1, -5.684341886080802e-14, -1.4210854715202004e-14)"/><path class="st6" d="M142,326.3c6.2-1.4,12.7-1.4,18.9,0l5.9-22c-10.1-2.5-20.6-2.5-30.7,0L142,326.3z" style="opacity: 0.8; fill: rgb(247, 247, 255); stroke: rgb(255, 255, 255);" transform="matrix(1, 0, 0, 1, -5.684341886080802e-14, -1.4210854715202004e-14)"/><path class="st3" d="M211.9,355.6l-7-50.3l-12,12c-7-5.8-14.9-10-23.2-12.4l-5.9,22c4.6,1.4,9,3.6,12.9,6.6l-15,15L211.9,355.6z" style="opacity: 0.9; fill: rgb(247, 247, 255); stroke: rgb(255, 255, 255);" transform="matrix(1, 0, 0, 1, -5.684341886080802e-14, -1.4210854715202004e-14)"/><g transform="matrix(1, 0, 0, 1, -5.684341886080802e-14, -1.4210854715202004e-14)">
			<path class="st6" d="M694.9,328.9c-2.8,0-5-2.3-5-5v-29.6c0-2.8,2.3-5,5-5c2.8,0,5,2.3,5,5v29.6&#10;&#9;&#9;&#9;&#9;C699.9,326.6,697.7,328.9,694.9,328.9z" style="opacity: 0.8; fill: rgb(247, 247, 255);"/>
		</g><path class="st1" d="M678.4,333.3c-2.4,1.4-5.5,0.6-6.9-1.8l-14.8-25.6c-1.4-2.4-0.6-5.5,1.8-6.9s5.5-0.6,6.9,1.8l14.8,25.6&#10;&#9;&#9;&#9;&#9;C681.6,328.9,680.8,331.9,678.4,333.3z" style="opacity: 0.7; fill: rgb(247, 247, 255);" transform="matrix(1, 0, 0, 1, -8.526512829121202e-14, -2.1316282072803006e-14)"/><path class="st2" d="M666.3,345.4c-1.4,2.4-4.5,3.2-6.9,1.8l-25.6-14.8c-2.4-1.4-3.2-4.5-1.8-6.9c1.4-2.4,4.5-3.2,6.9-1.8&#10;&#9;&#9;&#9;&#9;l25.6,14.8C666.9,340,667.7,343,666.3,345.4z" style="opacity: 0.6; fill: rgb(247, 247, 255);" transform="matrix(1, 0, 0, 1, -8.526512829121202e-14, -2.1316282072803006e-14)"/><path class="st5" d="M661.9,362c0,2.8-2.3,5-5,5h-29.6c-2.8,0-5-2.3-5-5s2.3-5,5-5h29.6C659.7,356.9,661.9,359.2,661.9,362z" style="opacity: 0.5; fill: rgb(247, 247, 255);" transform="matrix(1, 0, 0, 1, -8.526512829121202e-14, -2.1316282072803006e-14)"/><path class="st0" d="M666.4,378.5c1.4,2.4,0.6,5.5-1.8,6.9L639,400.1c-2.4,1.4-5.5,0.6-6.9-1.8c-1.4-2.4-0.6-5.5,1.8-6.9&#10;&#9;&#9;&#9;&#9;l25.6-14.8C661.9,375.2,665,376.1,666.4,378.5z" style="opacity: 0.4; fill: rgb(247, 247, 255);" transform="matrix(1, 0, 0, 1, -8.526512829121202e-14, -2.1316282072803006e-14)"/><path class="st4" d="M678.5,390.5c2.4,1.4,3.2,4.5,1.8,6.9L665.6,423c-1.4,2.4-4.5,3.2-6.9,1.8c-2.4-1.4-3.2-4.5-1.8-6.9&#10;&#9;&#9;&#9;&#9;l14.8-25.6C673,390,676.1,389.2,678.5,390.5z" style="opacity: 0.3; fill: rgb(247, 247, 255);" transform="matrix(1, 0, 0, 1, -8.526512829121202e-14, -2.1316282072803006e-14)"/><path class="st7" d="M695,394.9c2.8,0,5,2.3,5,5v29.6c0,2.8-2.3,5-5,5c-2.8,0-5-2.3-5-5V400C690,397.2,692.3,394.9,695,394.9z" style="opacity: 0.25; fill: rgb(247, 247, 255);" transform="matrix(1, 0, 0, 1, -8.526512829121202e-14, -2.1316282072803006e-14)"/><path class="st8" d="M711.5,390.5c2.4-1.4,5.5-0.6,6.9,1.8l14.8,25.6c1.4,2.4,0.6,5.5-1.8,6.9c-2.4,1.4-5.5,0.6-6.9-1.8&#10;&#9;&#9;&#9;&#9;l-14.8-25.6C708.3,395,709.1,391.9,711.5,390.5z" style="opacity: 0.2; fill: rgb(247, 247, 255);" transform="matrix(1, 0, 0, 1, -8.526512829121202e-14, -2.1316282072803006e-14)"/><g transform="matrix(1, 0, 0, 1, -8.526512829121202e-14, -2.1316282072803006e-14)" style="opacity: 0.15;">
				<defs>
					<filter id="Adobe_OpacityMaskFilter_8_" filterUnits="userSpaceOnUse" x="722.9" y="375.9" width="35.7" height="24.8">
						<feFlood style="flood-color:white;flood-opacity:1" result="back"/>
						<feBlend in="SourceGraphic" in2="back" mode="normal"/>
					</filter>
				</defs>
				<mask maskUnits="userSpaceOnUse" x="722.9" y="375.9" width="35.7" height="24.8" id="SVGID_13_">
					<g class="st26" style="filter: url('#Adobe_OpacityMaskFilter_8_');">
						<defs>
							<filter id="Adobe_OpacityMaskFilter_9_" filterUnits="userSpaceOnUse" x="722.9" y="375.9" width="35.7" height="24.8">
								<feFlood style="flood-color:white;flood-opacity:1" result="back"/>
								<feBlend in="SourceGraphic" in2="back" mode="normal"/>
							</filter>
						</defs>
						<mask maskUnits="userSpaceOnUse" x="722.9" y="375.9" width="35.7" height="24.8" id="SVGID_13_">
							<g class="st27" style="filter: url('#Adobe_OpacityMaskFilter_9_');">
							</g>
						</mask>
						<linearGradient id="SVGID_14_" gradientUnits="userSpaceOnUse" x1="740.0084" y1="398.1561" x2="745.6782" y2="325.2038">
							<stop offset="0" style="stop-color:#FFFFFF"/>
							<stop offset="1" style="stop-color:#000000"/>
						</linearGradient>
						<path class="st28" d="M723.6,378.4c1.4-2.4,4.5-3.2,6.9-1.8l25.6,14.8c2.4,1.4,3.2,4.5,1.8,6.9c-1.4,2.4-4.5,3.2-6.9,1.8&#10;&#9;&#9;&#9;&#9;&#9;&#9;&#9;l-25.6-14.8C723.1,383.9,722.2,380.8,723.6,378.4z" style="mask: url('#SVGID_13_'); fill: url('#SVGID_14_');"/>
					</g>
				</mask>
				<linearGradient id="SVGID_15_" gradientUnits="userSpaceOnUse" x1="740.0084" y1="398.1561" x2="745.6782" y2="325.2038">
					<stop offset="0" style="stop-color:#414143"/>
					<stop offset="1" style="stop-color:#414143"/>
				</linearGradient>
				<path class="st29" d="M723.6,378.4c1.4-2.4,4.5-3.2,6.9-1.8l25.6,14.8c2.4,1.4,3.2,4.5,1.8,6.9c-1.4,2.4-4.5,3.2-6.9,1.8&#10;&#9;&#9;&#9;&#9;&#9;l-25.6-14.8C723.1,383.9,722.2,380.8,723.6,378.4z" style="fill: rgb(247, 247, 255);"/>
			</g><defs style="opacity: 0.15;">
					<filter id="Adobe_OpacityMaskFilter_10_" filterUnits="userSpaceOnUse" x="728" y="356.8" width="39.6" height="10.1">
						<feFlood style="flood-color:white;flood-opacity:1" result="back"/>
						<feBlend in="SourceGraphic" in2="back" mode="normal"/>
					</filter>
				</defs><mask maskUnits="userSpaceOnUse" x="728" y="356.8" width="39.6" height="10.1" id="SVGID_16_" style="opacity: 0.15;">
					<g class="st30" style="filter: url('#Adobe_OpacityMaskFilter_10_');">
						<defs>
							<filter id="Adobe_OpacityMaskFilter_11_" filterUnits="userSpaceOnUse" x="728" y="356.8" width="39.6" height="10.1">
								<feFlood style="flood-color:white;flood-opacity:1" result="back"/>
								<feBlend in="SourceGraphic" in2="back" mode="normal"/>
							</filter>
						</defs>
						<mask maskUnits="userSpaceOnUse" x="728" y="356.8" width="39.6" height="10.1" id="SVGID_16_">
							<g class="st31" style="filter: url('#Adobe_OpacityMaskFilter_11_');">
							</g>
						</mask>
						<linearGradient id="SVGID_17_" gradientUnits="userSpaceOnUse" x1="744.9741" y1="398.5418" x2="750.644" y2="325.5899">
							<stop offset="0" style="stop-color:#FFFFFF"/>
							<stop offset="1" style="stop-color:#000000"/>
						</linearGradient>
						<path class="st32" d="M728,361.8c0-2.8,2.3-5,5-5h29.6c2.8,0,5,2.3,5,5s-2.3,5-5,5H733C730.3,366.9,728,364.6,728,361.8z" style="mask: url('#SVGID_16_'); fill: url('#SVGID_17_');"/>
					</g>
				</mask><linearGradient id="SVGID_18_" gradientUnits="userSpaceOnUse" x1="744.9741" y1="398.5418" x2="750.644" y2="325.5899" style="opacity: 0.15;">
					<stop offset="0" style="stop-color:#414143"/>
					<stop offset="1" style="stop-color:#414143"/>
				</linearGradient><path class="st33" d="M728,361.8c0-2.8,2.3-5,5-5h29.6c2.8,0,5,2.3,5,5s-2.3,5-5,5H733C730.3,366.9,728,364.6,728,361.8z" style="fill: rgb(247, 247, 255); opacity: 0.15;" transform="matrix(1, 0, 0, 1, -1.1368683772161603e-13, -2.842170943040401e-14)"/><defs style="opacity: 0.15;">
					<filter id="Adobe_OpacityMaskFilter_12_" filterUnits="userSpaceOnUse" x="722.9" y="323" width="35.7" height="24.8">
						<feFlood style="flood-color:white;flood-opacity:1" result="back"/>
						<feBlend in="SourceGraphic" in2="back" mode="normal"/>
					</filter>
				</defs><mask maskUnits="userSpaceOnUse" x="722.9" y="323" width="35.7" height="24.8" id="SVGID_19_" style="opacity: 0.15;">
					<g class="st34" style="filter: url('#Adobe_OpacityMaskFilter_12_');">
						<defs>
							<filter id="Adobe_OpacityMaskFilter_13_" filterUnits="userSpaceOnUse" x="722.9" y="323" width="35.7" height="24.8">
								<feFlood style="flood-color:white;flood-opacity:1" result="back"/>
								<feBlend in="SourceGraphic" in2="back" mode="normal"/>
							</filter>
						</defs>
						<mask maskUnits="userSpaceOnUse" x="722.9" y="323" width="35.7" height="24.8" id="SVGID_19_">
							<g class="st35" style="filter: url('#Adobe_OpacityMaskFilter_13_');">
							</g>
						</mask>
						<linearGradient id="SVGID_20_" gradientUnits="userSpaceOnUse" x1="735.8649" y1="397.8341" x2="741.5347" y2="324.882">
							<stop offset="0" style="stop-color:#FFFFFF"/>
							<stop offset="1" style="stop-color:#000000"/>
						</linearGradient>
						<path class="st36" d="M723.6,345.3c-1.4-2.4-0.6-5.5,1.8-6.9l25.6-14.8c2.4-1.4,5.5-0.6,6.9,1.8c1.4,2.4,0.6,5.5-1.8,6.9&#10;&#9;&#9;&#9;&#9;&#9;&#9;&#9;l-25.6,14.8C728,348.6,724.9,347.7,723.6,345.3z" style="mask: url('#SVGID_19_'); fill: url('#SVGID_20_');"/>
					</g>
				</mask><linearGradient id="SVGID_21_" gradientUnits="userSpaceOnUse" x1="735.8649" y1="397.8341" x2="741.5347" y2="324.882" style="opacity: 0.15;">
					<stop offset="0" style="stop-color:#414143"/>
					<stop offset="1" style="stop-color:#414143"/>
				</linearGradient><path class="st37" d="M723.6,345.3c-1.4-2.4-0.6-5.5,1.8-6.9l25.6-14.8c2.4-1.4,5.5-0.6,6.9,1.8c1.4,2.4,0.6,5.5-1.8,6.9&#10;&#9;&#9;&#9;&#9;&#9;l-25.6,14.8C728,348.6,724.9,347.7,723.6,345.3z" style="fill: rgb(247, 247, 255); opacity: 0.15;" transform="matrix(1, 0, 0, 1, -1.1368683772161603e-13, -2.842170943040401e-14)"/><path class="st3" d="M711.4,333.3c-2.4-1.4-3.2-4.5-1.8-6.9l14.8-25.6c1.4-2.4,4.5-3.2,6.9-1.8c2.4,1.4,3.2,4.5,1.8,6.9&#10;&#9;&#9;&#9;&#9;l-14.8,25.6C716.9,333.8,713.8,334.6,711.4,333.3z" style="opacity: 0.9; fill: rgb(247, 247, 255);" transform="matrix(1, 0, 0, 1, -8.526512829121202e-14, -2.1316282072803006e-14)"/><path d="M 960.400024 266.700012 H 975.200025 V 325.600014 H 960.400024 V 266.700012 Z" class="st6" style="opacity: 0.8; fill: rgb(247, 247, 255);" transform="matrix(1, 0, 0, 1, -5.684341886080802e-14, -1.4210854715202004e-14)"/><path d="M 905.5 297.5 H 964.400002 V 312.3 H 905.5 V 297.5 Z" transform="matrix(-0.5, -0.8659999966621399, 0.8659999966621399, -0.5, 1138.290771484375, 1267.1076660156248)" class="st1" style="opacity: 0.7; fill: rgb(247, 247, 255);"/><path d="M 881.400024 321.600006 H 940.300026 V 336.400006 H 881.400024 V 321.600006 Z" transform="matrix(-0.8659999966621399, -0.5, 0.5, -0.8659999966621399, 1535.1732177734375, 1069.4010009765623)" class="st2" style="opacity: 0.6; fill: rgb(247, 247, 255);"/><path d="M 872.599976 354.5 H 931.499977 V 369.3 H 872.599976 V 354.5 Z" class="st5" style="opacity: 0.5; fill: rgb(247, 247, 255);" transform="matrix(1, 0, 0, 1, -5.684341886080802e-14, -1.4210854715202004e-14)"/><path d="M 881.400024 387.399994 H 940.300026 V 402.199994 H 881.400024 V 387.399994 Z" transform="matrix(-0.8659999966621399, 0.5, -0.5, -0.8659999966621399, 1897.0777587890623, 281.2441101074219)" class="st0" style="opacity: 0.4; fill: rgb(247, 247, 255);"/><path d="M 905.5 411.399994 H 964.400002 V 426.199994 H 905.5 V 411.399994 Z" transform="matrix(-0.5, 0.8659999966621399, -0.8659999966621399, -0.5, 1765.1278076171875, -181.39390563964844)" class="st4" style="opacity: 0.3; fill: rgb(247, 247, 255);"/><path d="M 960.400024 398.200012 H 975.200025 V 457.100014 H 960.400024 V 398.200012 Z" class="st7" style="opacity: 0.25; fill: rgb(247, 247, 255);" transform="matrix(1, 0, 0, 1, -5.684341886080802e-14, -1.4210854715202004e-14)"/><path d="M 971.200012 411.399994 H 1030.100014 V 426.199994 H 971.200012 V 411.399994 Z" transform="matrix(0.5, 0.8659999966621399, -0.8659999966621399, 0.5, 863.0784301757812, -657.1923828125)" class="st8" style="opacity: 0.2; fill: rgb(247, 247, 255);"/><defs style="opacity: 0.15;">
				<filter id="Adobe_OpacityMaskFilter_14_" filterUnits="userSpaceOnUse" x="995.5" y="373.6" width="58.4" height="42.3">
					<feFlood style="flood-color:white;flood-opacity:1" result="back"/>
					<feBlend in="SourceGraphic" in2="back" mode="normal"/>
				</filter>
			</defs><mask maskUnits="userSpaceOnUse" x="995.5" y="373.6" width="58.4" height="42.3" id="SVGID_22_" style="opacity: 0.15;">
				<g class="st38" style="filter: url('#Adobe_OpacityMaskFilter_14_');">
					<defs>
						<filter id="Adobe_OpacityMaskFilter_15_" filterUnits="userSpaceOnUse" x="995.5" y="373.6" width="58.4" height="42.3">
							<feFlood style="flood-color:white;flood-opacity:1" result="back"/>
							<feBlend in="SourceGraphic" in2="back" mode="normal"/>
						</filter>
					</defs>
					<mask maskUnits="userSpaceOnUse" x="995.5" y="373.6" width="58.4" height="42.3" id="SVGID_22_">
						<g class="st39" style="filter: url('#Adobe_OpacityMaskFilter_15_');">
						</g>
					</mask>
					<linearGradient id="SVGID_23_" gradientUnits="userSpaceOnUse" x1="1025.1281" y1="407.4895" x2="1022.3062" y2="312.0202">
						<stop offset="0" style="stop-color:#FFFFFF"/>
						<stop offset="1" style="stop-color:#000000"/>
					</linearGradient>
					<path d="M 1054 403.1000061035156 L 1003 373.6000061035156 L 995.5 386.5 L 1046.5 415.8999938964844 Z" class="st40" style="mask: url('#SVGID_22_'); fill: url('#SVGID_23_');"/>
				</g>
			</mask><linearGradient id="SVGID_24_" gradientUnits="userSpaceOnUse" x1="1025.1281" y1="407.4895" x2="1022.3062" y2="312.0202" style="opacity: 0.15;">
				<stop offset="0" style="stop-color:#414143"/>
				<stop offset="1" style="stop-color:#414143"/>
			</linearGradient><path d="M 1054 403.1000061035156 L 1003 373.6000061035156 L 995.5 386.5 L 1046.5 415.8999938964844 Z" class="st41" style="opacity: 0.9; fill: rgb(247, 247, 255);" transform="matrix(1, 0, 0, 1, -8.526512829121202e-14, -2.1316282072803006e-14)"/><defs style="opacity: 0.15;">
				<filter id="Adobe_OpacityMaskFilter_16_" filterUnits="userSpaceOnUse" x="1004.1" y="354.5" width="58.9" height="14.8">
					<feFlood style="flood-color:white;flood-opacity:1" result="back"/>
					<feBlend in="SourceGraphic" in2="back" mode="normal"/>
				</filter>
			</defs><mask maskUnits="userSpaceOnUse" x="1004.1" y="354.5" width="58.9" height="14.8" id="SVGID_25_" style="opacity: 0.15;">
				<g class="st42" style="filter: url('#Adobe_OpacityMaskFilter_16_');">
					<defs>
						<filter id="Adobe_OpacityMaskFilter_17_" filterUnits="userSpaceOnUse" x="1004.1" y="354.5" width="58.9" height="14.8">
							<feFlood style="flood-color:white;flood-opacity:1" result="back"/>
							<feBlend in="SourceGraphic" in2="back" mode="normal"/>
						</filter>
					</defs>
					<mask maskUnits="userSpaceOnUse" x="1004.1" y="354.5" width="58.9" height="14.8" id="SVGID_25_">
						<g class="st43" style="filter: url('#Adobe_OpacityMaskFilter_17_');">
						</g>
					</mask>
					<linearGradient id="SVGID_26_" gradientUnits="userSpaceOnUse" x1="1034.901" y1="407.2006" x2="1032.0792" y2="311.7313">
						<stop offset="0" style="stop-color:#FFFFFF"/>
						<stop offset="1" style="stop-color:#000000"/>
					</linearGradient>
					<path d="M 1004.099976 354.5 H 1062.999977 V 369.3 H 1004.099976 V 354.5 Z" class="st44" style="mask: url('#SVGID_25_'); fill: url('#SVGID_26_');"/>
				</g>
			</mask><linearGradient id="SVGID_27_" gradientUnits="userSpaceOnUse" x1="1034.901" y1="407.2006" x2="1032.0792" y2="311.7313" style="opacity: 0.15;">
				<stop offset="0" style="stop-color:#414143"/>
				<stop offset="1" style="stop-color:#414143"/>
			</linearGradient><path d="M 1004.099976 354.5 H 1062.999977 V 369.3 H 1004.099976 V 354.5 Z" class="st45" style="opacity: 0.9; fill: rgb(247, 247, 255);" transform="matrix(1, 0, 0, 1, -8.526512829121202e-14, -2.1316282072803006e-14)"/><defs style="opacity: 0.15;">
				<filter id="Adobe_OpacityMaskFilter_18_" filterUnits="userSpaceOnUse" x="995.5" y="307.9" width="58.4" height="42.3">
					<feFlood style="flood-color:white;flood-opacity:1" result="back"/>
					<feBlend in="SourceGraphic" in2="back" mode="normal"/>
				</filter>
			</defs><mask maskUnits="userSpaceOnUse" x="995.5" y="307.9" width="58.4" height="42.3" id="SVGID_28_" style="opacity: 0.15;">
				<g class="st46" style="filter: url('#Adobe_OpacityMaskFilter_18_');">
					<defs>
						<filter id="Adobe_OpacityMaskFilter_19_" filterUnits="userSpaceOnUse" x="995.5" y="307.9" width="58.4" height="42.3">
							<feFlood style="flood-color:white;flood-opacity:1" result="back"/>
							<feBlend in="SourceGraphic" in2="back" mode="normal"/>
						</filter>
					</defs>
					<mask maskUnits="userSpaceOnUse" x="995.5" y="307.9" width="58.4" height="42.3" id="SVGID_28_">
						<g class="st47" style="filter: url('#Adobe_OpacityMaskFilter_19_');">
						</g>
					</mask>
					<linearGradient id="SVGID_29_" gradientUnits="userSpaceOnUse" x1="1027.0698" y1="407.4318" x2="1024.248" y2="311.9628">
						<stop offset="0" style="stop-color:#FFFFFF"/>
						<stop offset="1" style="stop-color:#000000"/>
					</linearGradient>
					<path d="M 1046.5 307.8999938964844 L 995.5 337.29998779296875 L 1003 350.20001220703125 L 1054 320.70001220703125 Z" class="st48" style="mask: url('#SVGID_28_'); fill: url('#SVGID_29_');"/>
				</g>
			</mask><linearGradient id="SVGID_30_" gradientUnits="userSpaceOnUse" x1="1027.0698" y1="407.4318" x2="1024.248" y2="311.9628" style="opacity: 0.15;">
				<stop offset="0" style="stop-color:#414143"/>
				<stop offset="1" style="stop-color:#414143"/>
			</linearGradient><path d="M 1046.5 307.8999938964844 L 995.5 337.29998779296875 L 1003 350.20001220703125 L 1054 320.70001220703125 Z" class="st49" style="opacity: 0.9; fill: rgb(247, 247, 255);" transform="matrix(1, 0, 0, 1, -8.526512829121202e-14, -2.1316282072803006e-14)"/><path d="M 971.200012 297.5 H 1030.100014 V 312.3 H 971.200012 V 297.5 Z" transform="matrix(0.5, -0.8659999966621399, 0.8659999966621399, 0.5, 236.24079895019526, 1019.0966186523435)" class="st3" style="opacity: 0.9; fill: rgb(247, 247, 255);"/><path class="st6" d="M1265.4,298.4c-0.5,5.9-3.8,11-8.4,14c7.5,2.5,14.6,6.7,20.6,12.7c0.1,0.1,0.2,0.2,0.4,0.4l0,0&#10;&#9;&#9;&#9;c5.2,5.2,13.6,5.2,18.8,0c5.1-5.1,5.2-13.5,0.1-18.7c-0.2-0.2-0.3-0.3-0.5-0.5c-9.9-9.9-21.7-16.6-34.2-20.1&#10;&#9;&#9;&#9;C1264.5,289.6,1265.8,293.8,1265.4,298.4z" style="opacity: 0.8; fill: rgb(247, 247, 255);" transform="matrix(1, 0, 0, 1, -5.684341886080802e-14, -1.4210854715202004e-14)"/><defs style="opacity: 0.15;">
				<filter id="Adobe_OpacityMaskFilter_20_" filterUnits="userSpaceOnUse" x="1280.7" y="369.3" width="38.3" height="43.8">
					<feFlood style="flood-color:white;flood-opacity:1" result="back"/>
					<feBlend in="SourceGraphic" in2="back" mode="normal"/>
				</filter>
			</defs><mask maskUnits="userSpaceOnUse" x="1280.7" y="369.3" width="38.3" height="43.8" id="SVGID_31_" style="opacity: 0.15;">
				<g class="st50" style="filter: url('#Adobe_OpacityMaskFilter_20_');">
					<defs>
						<filter id="Adobe_OpacityMaskFilter_21_" filterUnits="userSpaceOnUse" x="1280.7" y="369.3" width="38.3" height="43.8">
							<feFlood style="flood-color:white;flood-opacity:1" result="back"/>
							<feBlend in="SourceGraphic" in2="back" mode="normal"/>
						</filter>
					</defs>
					<mask maskUnits="userSpaceOnUse" x="1280.7" y="369.3" width="38.3" height="43.8" id="SVGID_31_">
						<g class="st51" style="filter: url('#Adobe_OpacityMaskFilter_21_');">
						</g>
					</mask>
					
						<linearGradient id="SVGID_32_" gradientUnits="userSpaceOnUse" x1="2027.9498" y1="1392.1018" x2="2039.9126" y2="1315.009" gradientTransform="matrix(0.7071 0.7071 -0.7071 0.7071 795.3537 -1990.2533)">
						<stop offset="0" style="stop-color:#FFFFFF"/>
						<stop offset="1" style="stop-color:#000000"/>
					</linearGradient>
					<path class="st52" d="M1286.3,410.8c6,4.2,14.3,2.7,18.5-3.3l0,0c8.1-11.3,12.8-24.3,14.1-37.6c-3,3-7,4.9-11.5,5.3&#10;&#9;&#9;&#9;&#9;&#9;&#9;c-5.9,0.5-11.5-1.8-15.2-5.9c-1.2,8.1-4.2,16-9.2,22.9C1278.9,398.3,1280.3,406.6,1286.3,410.8z" style="mask: url('#SVGID_31_'); fill: url('#SVGID_32_');"/>
				</g>
			</mask><linearGradient id="SVGID_33_" gradientUnits="userSpaceOnUse" x1="2027.9498" y1="1392.1018" x2="2039.9126" y2="1315.009" gradientTransform="matrix(0.7071 0.7071 -0.7071 0.7071 795.3537 -1990.2533)" style="opacity: 0.15;">
				<stop offset="0" style="stop-color:#414143"/>
				<stop offset="1" style="stop-color:#414143"/>
			</linearGradient><path class="st53" d="M1286.3,410.8c6,4.2,14.3,2.7,18.5-3.3l0,0c8.1-11.3,12.8-24.3,14.1-37.6c-3,3-7,4.9-11.5,5.3&#10;&#9;&#9;&#9;&#9;c-5.9,0.5-11.5-1.8-15.2-5.9c-1.2,8.1-4.2,16-9.2,22.9C1278.9,398.3,1280.3,406.6,1286.3,410.8z" style="fill: rgb(247, 247, 255); opacity: 0.15;" transform="matrix(1, 0, 0, 1, -8.526512829121202e-14, -2.1316282072803006e-14)"/><defs style="opacity: 0.15;">
				<filter id="Adobe_OpacityMaskFilter_22_" filterUnits="userSpaceOnUse" x="1243.8" y="400.8" width="51.7" height="37.8">
					<feFlood style="flood-color:white;flood-opacity:1" result="back"/>
					<feBlend in="SourceGraphic" in2="back" mode="normal"/>
				</filter>
			</defs><mask maskUnits="userSpaceOnUse" x="1243.8" y="400.8" width="51.7" height="37.8" id="SVGID_34_" style="opacity: 0.15;">
				<g class="st54" style="filter: url('#Adobe_OpacityMaskFilter_22_');">
					<defs>
						<filter id="Adobe_OpacityMaskFilter_23_" filterUnits="userSpaceOnUse" x="1243.8" y="400.8" width="51.7" height="37.8">
							<feFlood style="flood-color:white;flood-opacity:1" result="back"/>
							<feBlend in="SourceGraphic" in2="back" mode="normal"/>
						</filter>
					</defs>
					<mask maskUnits="userSpaceOnUse" x="1243.8" y="400.8" width="51.7" height="37.8" id="SVGID_34_">
						<g class="st55" style="filter: url('#Adobe_OpacityMaskFilter_23_');">
						</g>
					</mask>
					
						<linearGradient id="SVGID_35_" gradientUnits="userSpaceOnUse" x1="2035.0704" y1="1393.2068" x2="2047.0332" y2="1316.1141" gradientTransform="matrix(0.7071 0.7071 -0.7071 0.7071 795.3537 -1990.2533)">
						<stop offset="0" style="stop-color:#FFFFFF"/>
						<stop offset="1" style="stop-color:#000000"/>
					</linearGradient>
					<path class="st56" d="M1283.3,415.1c-4.9-3.4-7.6-8.8-7.9-14.3c-6.4,5.8-13.9,9.6-21.8,11.7c-7.1,1.9-11.2,9.2-9.3,16.3&#10;&#9;&#9;&#9;&#9;&#9;&#9;c1.9,7.1,9.2,11.3,16.3,9.4l0,0c12.8-3.3,24.9-9.9,35-19.7C1291.3,418.7,1287,417.7,1283.3,415.1z" style="mask: url('#SVGID_34_'); fill: url('#SVGID_35_');"/>
				</g>
			</mask><linearGradient id="SVGID_36_" gradientUnits="userSpaceOnUse" x1="2035.0704" y1="1393.2068" x2="2047.0332" y2="1316.1141" gradientTransform="matrix(0.7071 0.7071 -0.7071 0.7071 795.3537 -1990.2533)" style="opacity: 0.15;">
				<stop offset="0" style="stop-color:#414143"/>
				<stop offset="1" style="stop-color:#414143"/>
			</linearGradient><path class="st57" d="M1283.3,415.1c-4.9-3.4-7.6-8.8-7.9-14.3c-6.4,5.8-13.9,9.6-21.8,11.7c-7.1,1.9-11.2,9.2-9.3,16.3&#10;&#9;&#9;&#9;&#9;c1.9,7.1,9.2,11.3,16.3,9.4l0,0c12.8-3.3,24.9-9.9,35-19.7C1291.3,418.7,1287,417.7,1283.3,415.1z" style="fill: rgb(247, 247, 255); opacity: 0.15;" transform="matrix(1, 0, 0, 1, -8.526512829121202e-14, -2.1316282072803006e-14)"/><path class="st3" d="M1292.7,357.9c0.6,7.3,7.1,12.7,14.4,12.1c7.3-0.6,12.7-7,12.1-14.3c-1.1-13.3-5.5-26.5-13.3-38&#10;&#9;&#9;&#9;c-0.4,4.2-2.2,8.3-5.4,11.5c-4.2,4.2-10,6-15.4,5.3C1289.5,341.6,1292,349.7,1292.7,357.9L1292.7,357.9z" style="opacity: 0.9; fill: rgb(247, 247, 255);" transform="matrix(1, 0, 0, 1, -5.684341886080802e-14, -1.4210854715202004e-14)"/><path class="st1" d="M1218.7,297.3c3.4,4.9,4.2,10.8,2.5,16.1c7.8-3.1,16.2-4.3,24.4-3.5l0,0c7.3,0.6,13.8-4.8,14.4-12.1&#10;&#9;&#9;&#9;c0.6-7.3-4.8-13.7-12.1-14.4c-13.4-1.3-27.2,0.9-39.7,6.6C1212.4,291.2,1216.1,293.6,1218.7,297.3z" style="opacity: 0.7; fill: rgb(247, 247, 255);" transform="matrix(1, 0, 0, 1, -5.684341886080802e-14, -1.4210854715202004e-14)"/><path class="st7" d="M1239.1,430.1c-1.5-5.8-0.2-11.6,3.1-16c-8.3,0.3-16.7-1.5-24.4-5.2c-6.6-3-14.4-0.1-17.5,6.5&#10;&#9;&#9;&#9;c-3.1,6.7-0.2,14.6,6.4,17.7l0,0c12.4,5.9,26.1,8.3,39.5,7.4C1242.9,438,1240.3,434.4,1239.1,430.1z" style="opacity: 0.25; fill: rgb(247, 247, 255);" transform="matrix(1, 0, 0, 1, -5.684341886080802e-14, -1.4210854715202004e-14)"/><path class="st4" d="M1195.7,413.2c2.5-5.4,7.3-9,12.7-10.3c-1.6-1.3-3.2-2.6-4.6-4.1c-4.6-4.6-8.2-9.9-10.7-15.5&#10;&#9;&#9;&#9;c-3.2-6.5-11-9.3-17.6-6.2c-6.7,3.1-9.5,11-6.4,17.7l0,0c3.8,8.3,9.1,16,15.9,22.9c3,3,6.2,5.8,9.6,8.2&#10;&#9;&#9;&#9;C1193.5,421.7,1193.8,417.3,1195.7,413.2z" style="opacity: 0.3; fill: rgb(247, 247, 255);" transform="matrix(1, 0, 0, 1, -5.684341886080802e-14, -1.4210854715202004e-14)"/><path class="st0" d="M1173.2,372.3c5.4-2.5,11.4-2.2,16.3,0.3c-1.7-8.2-1.4-16.7,0.8-24.8c1.8-7.1-2.4-14.3-9.4-16.2&#10;&#9;&#9;&#9;c-7.1-1.9-14.4,2.3-16.3,9.4l0,0c-3.6,13.1-3.7,27-0.4,40.2C1166.1,377.4,1169.1,374.2,1173.2,372.3z" style="opacity: 0.4; fill: rgb(247, 247, 255);" transform="matrix(1, 0, 0, 1, -5.684341886080802e-14, -1.4210854715202004e-14)"/><path class="st2" d="M1182.4,326.5c5.8,1.5,10.1,5.6,12.3,10.7c2.4-4.4,5.4-8.5,9.1-12.2c2.3-2.3,4.8-4.4,7.5-6.2&#10;&#9;&#9;&#9;c6-4.2,7.4-12.5,3.2-18.5c-4.2-6-12.5-7.5-18.5-3.3l0,0c-3.8,2.7-7.5,5.7-10.9,9.1c-6.4,6.4-11.5,13.7-15.2,21.4&#10;&#9;&#9;&#9;C1173.5,325.8,1178,325.4,1182.4,326.5z" style="opacity: 0.6; fill: rgb(247, 247, 255);" transform="matrix(1, 0, 0, 1, -5.684341886080802e-14, -1.4210854715202004e-14)"/><defs>
			<filter id="Adobe_OpacityMaskFilter_24_" filterUnits="userSpaceOnUse" x="134.4" y="565.2" width="85.8" height="140.4">
				<feFlood style="flood-color:white;flood-opacity:1" result="back"/>
				<feBlend in="SourceGraphic" in2="back" mode="normal"/>
			</filter>
		</defs><mask maskUnits="userSpaceOnUse" x="134.4" y="565.2" width="85.8" height="140.4" id="SVGID_37_">
			<g class="st58" style="filter: url('#Adobe_OpacityMaskFilter_24_');">
				<defs>
					<filter id="Adobe_OpacityMaskFilter_25_" filterUnits="userSpaceOnUse" x="134.4" y="565.2" width="85.8" height="140.4">
						<feFlood style="flood-color:white;flood-opacity:1" result="back"/>
						<feBlend in="SourceGraphic" in2="back" mode="normal"/>
					</filter>
				</defs>
				<mask maskUnits="userSpaceOnUse" x="134.4" y="565.2" width="85.8" height="140.4" id="SVGID_37_">
					<g class="st59" style="filter: url('#Adobe_OpacityMaskFilter_25_');">
					</g>
				</mask>
				<linearGradient id="SVGID_38_" gradientUnits="userSpaceOnUse" x1="142.1891" y1="709.7386" x2="204.4954" y2="581.2853">
					<stop offset="0" style="stop-color:#FFFFFF"/>
					<stop offset="1" style="stop-color:#1A1A1A"/>
				</linearGradient>
				<path class="st60" d="M162.8,565.2c3.5,3.5,5.7,8.3,5.7,13.6c0,6.8-3.6,12.8-8.9,16.2c17.7,4.6,30.7,20.6,30.7,39.7&#10;&#9;&#9;&#9;&#9;&#9;c0,22.6-18.4,41-41,41v0c-8.2,0-14.9,6.7-14.9,14.9s6.7,14.9,14.9,14.9c39.1,0,70.8-31.7,70.8-70.8&#10;&#9;&#9;&#9;&#9;&#9;C220.2,600.2,195.5,571.5,162.8,565.2z" style="mask: url('#SVGID_37_'); fill: url('#SVGID_38_');"/>
			</g>
		</mask><linearGradient id="SVGID_39_" gradientUnits="userSpaceOnUse" x1="142.1891" y1="709.7386" x2="204.4954" y2="581.2853">
			<stop offset="0" style="stop-color:#414143"/>
			<stop offset="1" style="stop-color:#414143"/>
		</linearGradient><path class="st61" d="M162.8,565.2c3.5,3.5,5.7,8.3,5.7,13.6c0,6.8-3.6,12.8-8.9,16.2c17.7,4.6,30.7,20.6,30.7,39.7&#10;&#9;&#9;&#9;c0,22.6-18.4,41-41,41v0c-8.2,0-14.9,6.7-14.9,14.9s6.7,14.9,14.9,14.9c39.1,0,70.8-31.7,70.8-70.8&#10;&#9;&#9;&#9;C220.2,600.2,195.5,571.5,162.8,565.2z" style="opacity: 0.6; fill: rgb(247, 247, 255);" transform="matrix(1, 0, 0, 1, -5.684341886080802e-14, -1.4210854715202004e-14)"/><path class="st6" d="M130.1,690.6c0-6.8,3.6-12.8,8.9-16.2c-17.7-4.6-30.7-20.6-30.7-39.7c0-22.6,18.4-41,41-41l0,0&#10;&#9;&#9;&#9;c8.2,0,14.9-6.7,14.9-14.9c0-8.2-6.7-14.9-14.9-14.9c-39.1,0-70.8,31.7-70.8,70.8c0,34.5,24.7,63.3,57.3,69.6&#10;&#9;&#9;&#9;C132.3,700.8,130.1,696,130.1,690.6z" style="opacity: 0.8; fill: rgb(247, 247, 255);" transform="matrix(1, 0, 0, 1, -5.684341886080802e-14, -1.4210854715202004e-14)"/><defs>
			<filter id="Adobe_OpacityMaskFilter_26_" filterUnits="userSpaceOnUse" x="407.4" y="646.1" width="83.8" height="59.3">
				<feFlood style="flood-color:white;flood-opacity:1" result="back"/>
				<feBlend in="SourceGraphic" in2="back" mode="normal"/>
			</filter>
		</defs><mask maskUnits="userSpaceOnUse" x="407.4" y="646.1" width="83.8" height="59.3" id="SVGID_40_">
			<g class="st62" style="filter: url('#Adobe_OpacityMaskFilter_26_');">
				<defs>
					<filter id="Adobe_OpacityMaskFilter_27_" filterUnits="userSpaceOnUse" x="407.4" y="646.1" width="83.8" height="59.3">
						<feFlood style="flood-color:white;flood-opacity:1" result="back"/>
						<feBlend in="SourceGraphic" in2="back" mode="normal"/>
					</filter>
				</defs>
				<mask maskUnits="userSpaceOnUse" x="407.4" y="646.1" width="83.8" height="59.3" id="SVGID_40_">
					<g class="st63" style="filter: url('#Adobe_OpacityMaskFilter_27_');">
					</g>
				</mask>
				<linearGradient id="SVGID_41_" gradientUnits="userSpaceOnUse" x1="407.3779" y1="675.775" x2="491.2209" y2="675.775">
					<stop offset="0" style="stop-color:#FFFFFF"/>
					<stop offset="1" style="stop-color:#1A1A1A"/>
				</linearGradient>
				<path class="st64" d="M478.1,654.7c-6.8,0-12.8-3.4-16.4-8.6c-4.9,17.2-20.8,29.7-39.5,29.7c0,0,0,0,0,0&#10;&#9;&#9;&#9;&#9;&#9;c-8.2,0-14.8,6.6-14.8,14.8c0,8.2,6.6,14.8,14.8,14.8l0,0c33.9,0,62.2-23.9,69.1-55.7C487.7,652.8,483.1,654.7,478.1,654.7z" style="mask: url('#SVGID_40_'); fill: url('#SVGID_41_');"/>
			</g>
		</mask><linearGradient id="SVGID_42_" gradientUnits="userSpaceOnUse" x1="407.3779" y1="675.775" x2="491.2209" y2="675.775">
			<stop offset="0" style="stop-color:#414143"/>
			<stop offset="1" style="stop-color:#414143"/>
		</linearGradient><path class="st65" d="M478.1,654.7c-6.8,0-12.8-3.4-16.4-8.6c-4.9,17.2-20.8,29.7-39.5,29.7c0,0,0,0,0,0&#10;&#9;&#9;&#9;c-8.2,0-14.8,6.6-14.8,14.8c0,8.2,6.6,14.8,14.8,14.8l0,0c33.9,0,62.2-23.9,69.1-55.7C487.7,652.8,483.1,654.7,478.1,654.7z" style="opacity: 0.2; fill: rgb(247, 247, 255);" transform="matrix(1, 0, 0, 1, -5.684341886080802e-14, -1.4210854715202004e-14)"/><path class="st1" d="M437.1,565.7c3.1,3.5,5,8.1,5,13.2c0,6.8-3.4,12.8-8.6,16.4c17.2,4.9,29.7,20.8,29.7,39.5c0,0,0,0,0,0l0,0&#10;&#9;&#9;&#9;c0,0.5,0,1,0,1.4h0.1c0.7,7.5,7,13.3,14.7,13.3c7.7,0,14-5.9,14.7-13.3h0.1c0-0.5,0-1,0-1.4C492.8,600.8,469,572.5,437.1,565.7z" style="opacity: 0.7; fill: rgb(247, 247, 255);" transform="matrix(1, 0, 0, 1, -5.684341886080802e-14, -1.4210854715202004e-14)"/><path class="st2" d="M422.1,564.1L422.1,564.1L422.1,564.1L422.1,564.1c-33.9,0-62.2,23.9-69.1,55.7c3.5-3.1,8.1-5,13.2-5&#10;&#9;&#9;&#9;c6.8,0,12.8,3.4,16.4,8.6c4.9-17.2,20.8-29.7,39.5-29.7c0,0,0,0,0,0c8.2,0,14.8-6.6,14.8-14.8&#10;&#9;&#9;&#9;C436.9,570.7,430.3,564.1,422.1,564.1z" style="opacity: 0.6; fill: rgb(247, 247, 255);" transform="matrix(1, 0, 0, 1, -5.684341886080802e-14, -1.4210854715202004e-14)"/><path class="st66" d="M402.2,690.6c0-6.8,3.4-12.8,8.6-16.4c-16.7-4.8-29.1-20-29.7-38.1h-0.1c0-0.5,0.1-0.9,0.1-1.4&#10;&#9;&#9;&#9;c0-8.2-6.6-14.8-14.8-14.8c-8.2,0-14.8,6.6-14.8,14.8c0,0.5,0,1,0.1,1.4h-0.1c0.7,33.3,24.3,60.9,55.7,67.6&#10;&#9;&#9;&#9;C404.1,700.3,402.2,695.7,402.2,690.6z" style="opacity: 0.35; fill: rgb(247, 247, 255);" transform="matrix(1, 0, 0, 1, -5.684341886080802e-14, -1.4210854715202004e-14)"/><defs>
			<filter id="Adobe_OpacityMaskFilter_28_" filterUnits="userSpaceOnUse" x="695" y="580.4" width="63.9" height="54.3">
				<feFlood style="flood-color:white;flood-opacity:1" result="back"/>
				<feBlend in="SourceGraphic" in2="back" mode="normal"/>
			</filter>
		</defs><mask maskUnits="userSpaceOnUse" x="695" y="580.4" width="63.9" height="54.3" id="SVGID_43_">
			<g class="st67" style="filter: url('#Adobe_OpacityMaskFilter_28_');">
				<defs>
					<filter id="Adobe_OpacityMaskFilter_29_" filterUnits="userSpaceOnUse" x="695" y="580.4" width="63.9" height="54.3">
						<feFlood style="flood-color:white;flood-opacity:1" result="back"/>
						<feBlend in="SourceGraphic" in2="back" mode="normal"/>
					</filter>
				</defs>
				<mask maskUnits="userSpaceOnUse" x="695" y="580.4" width="63.9" height="54.3" id="SVGID_43_">
					<g class="st68" style="filter: url('#Adobe_OpacityMaskFilter_29_');">
					</g>
				</mask>
				<linearGradient id="SVGID_44_" gradientUnits="userSpaceOnUse" x1="732.62" y1="627.1431" x2="710.8206" y2="601.5526">
					<stop offset="0" style="stop-color:#FFFFFF"/>
					<stop offset="1" style="stop-color:#000000"/>
				</linearGradient>
				<path class="st69" d="M758.9,614c-4.4-13.6-13.1-25.3-24.4-33.6L695,634.7L758.9,614z" style="mask: url('#SVGID_43_'); fill: url('#SVGID_44_');"/>
			</g>
		</mask><linearGradient id="SVGID_45_" gradientUnits="userSpaceOnUse" x1="732.62" y1="627.1431" x2="710.8206" y2="601.5526">
			<stop offset="0" style="stop-color:#414143"/>
			<stop offset="1" style="stop-color:#414143"/>
		</linearGradient><path class="st70" d="M758.9,614c-4.4-13.6-13.1-25.3-24.4-33.6L695,634.7L758.9,614z" style="opacity: 0.05; fill: rgb(247, 247, 255);" transform="matrix(1, 0, 0, 1, -5.684341886080802e-14, -1.4210854715202004e-14)"/><path class="st71" d="M695,634.7l63.9,20.8c2.1-6.5,3.3-13.5,3.3-20.8c0-7.2-1.2-14.2-3.3-20.8L695,634.7L695,634.7z" style="opacity: 0.1; fill: rgb(247, 247, 255);" transform="matrix(1, 0, 0, 1, -5.684341886080802e-14, -1.4210854715202004e-14)"/><path d="M 695 634.7000122070312 L 695 634.7000122070312 L 695 634.7000122070312 Z" class="st72" style="fill: rgb(65, 65, 67);" transform="matrix(1, 0, 0, 1, -5.684341886080802e-14, -1.4210854715202004e-14)"/><path d="M 695 634.7000122070312 L 695 634.7000122070312 L 695 634.7000122070312 Z" class="st72" style="fill: rgb(65, 65, 67);" transform="matrix(1, 0, 0, 1, -5.684341886080802e-14, -1.4210854715202004e-14)"/><path class="st6" d="M695,634.7l39.5-54.3c-11.1-8.1-24.7-12.8-39.5-12.8V634.7L695,634.7z" style="opacity: 0.8; fill: rgb(247, 247, 255);" transform="matrix(1, 0, 0, 1, -5.684341886080802e-14, -1.4210854715202004e-14)"/><path d="M 695 634.7000122070312 L 695 634.7000122070312 L 695 634.7000122070312 Z" class="st72" style="fill: rgb(65, 65, 67);" transform="matrix(1, 0, 0, 1, -5.684341886080802e-14, -1.4210854715202004e-14)"/><path class="st2" d="M695,634.7l-39.5-54.3c-11.3,8.2-20,20-24.4,33.6L695,634.7L695,634.7z" style="opacity: 0.6; fill: rgb(247, 247, 255);" transform="matrix(1, 0, 0, 1, -5.684341886080802e-14, -1.4210854715202004e-14)"/><path class="st7" d="M695,701.9c14.8,0,28.4-4.8,39.5-12.8L695,634.7V701.9z" style="opacity: 0.25; fill: rgb(247, 247, 255);" transform="matrix(1, 0, 0, 1, -5.684341886080802e-14, -1.4210854715202004e-14)"/><path class="st4" d="M655.5,689.1c11.1,8.1,24.7,12.8,39.5,12.8l0,0v-67.2L655.5,689.1z" style="opacity: 0.3; fill: rgb(247, 247, 255);" transform="matrix(1, 0, 0, 1, -5.684341886080802e-14, -1.4210854715202004e-14)"/><path class="st8" d="M758.9,655.5L695,634.7l39.5,54.3C745.8,680.8,754.4,669.1,758.9,655.5z" style="opacity: 0.2; fill: rgb(247, 247, 255);" transform="matrix(1, 0, 0, 1, -5.684341886080802e-14, -1.4210854715202004e-14)"/><path class="st0" d="M695,634.7l-63.9,20.8c4.4,13.6,13.1,25.3,24.4,33.6L695,634.7L695,634.7z" style="opacity: 0.4; fill: rgb(247, 247, 255);" transform="matrix(1, 0, 0, 1, -5.684341886080802e-14, -1.4210854715202004e-14)"/><path class="st5" d="M631.1,614c-2.1,6.5-3.3,13.5-3.3,20.8s1.2,14.2,3.3,20.8l63.9-20.8L631.1,614z" style="opacity: 0.5; fill: rgb(247, 247, 255);" transform="matrix(1, 0, 0, 1, -5.684341886080802e-14, -1.4210854715202004e-14)"/><path class="st1" d="M695,634.7v-67.2l0,0c-14.8,0-28.4,4.8-39.5,12.8L695,634.7L695,634.7z" style="opacity: 0.7; fill: rgb(247, 247, 255);" transform="matrix(1, 0, 0, 1, -5.684341886080802e-14, -1.4210854715202004e-14)"/><path d="M 983.600025 579.5 A 17.700001 17.700001 0 0 1 965.900024 597.200001 A 17.700001 17.700001 0 0 1 948.200024 579.5 A 17.700001 17.700001 0 0 1 965.900024 561.799999 A 17.700001 17.700001 0 0 1 983.600025 579.5 Z" class="st3" style="opacity: 0.9; fill: rgb(247, 247, 255);" transform="matrix(1, 0, 0, 1, -5.684341886080802e-14, -1.4210854715202004e-14)"/><path d="M 942.800024 593.700012 A 15.9 15.9 0 0 1 926.900024 609.600012 A 15.9 15.9 0 0 1 911.000025 593.700012 A 15.9 15.9 0 0 1 926.900024 577.800013 A 15.9 15.9 0 0 1 942.800024 593.700012 Z" class="st6" style="opacity: 0.8; fill: rgb(247, 247, 255);" transform="matrix(1, 0, 0, 1, -5.684341886080802e-14, -1.4210854715202004e-14)"/><path d="M 920.400012 629.599976 A 14.2 14.2 0 0 1 906.200012 643.799975 A 14.2 14.2 0 0 1 892.000012 629.599976 A 14.2 14.2 0 0 1 906.200012 615.399976 A 14.2 14.2 0 0 1 920.400012 629.599976 Z" class="st2" style="opacity: 0.6; fill: rgb(247, 247, 255);" transform="matrix(1, 0, 0, 1, -5.684341886080802e-14, -1.4210854715202004e-14)"/><path d="M 925.800024 670.400024 A 12.4 12.4 0 0 1 913.400024 682.800024 A 12.4 12.4 0 0 1 901.000025 670.400024 A 12.4 12.4 0 0 1 913.400024 658.000025 A 12.4 12.4 0 0 1 925.800024 670.400024 Z" class="st5" style="opacity: 0.5; fill: rgb(247, 247, 255);" transform="matrix(1, 0, 0, 1, -5.684341886080802e-14, -1.4210854715202004e-14)"/><path d="M 955.800013 697.099976 A 10.6 10.6 0 0 1 945.200012 707.699976 A 10.6 10.6 0 0 1 934.600012 697.099976 A 10.6 10.6 0 0 1 945.200012 686.499975 A 10.6 10.6 0 0 1 955.800013 697.099976 Z" class="st0" style="opacity: 0.4; fill: rgb(247, 247, 255);" transform="matrix(1, 0, 0, 1, -5.684341886080802e-14, -1.4210854715202004e-14)"/><path d="M 995.499975 697.099976 A 8.9 8.9 0 0 1 986.599976 705.999975 A 8.9 8.9 0 0 1 977.699976 697.099976 A 8.9 8.9 0 0 1 986.599976 688.199976 A 8.9 8.9 0 0 1 995.499975 697.099976 Z" class="st7" style="opacity: 0.25; fill: rgb(247, 247, 255);" transform="matrix(1, 0, 0, 1, -5.684341886080802e-14, -1.4210854715202004e-14)"/><path d="M 1025.500024 670.400024 A 7.1 7.1 0 0 1 1018.400024 677.500024 A 7.1 7.1 0 0 1 1011.300025 670.400024 A 7.1 7.1 0 0 1 1018.400024 663.300025 A 7.1 7.1 0 0 1 1025.500024 670.400024 Z" class="st8" style="opacity: 0.2; fill: rgb(247, 247, 255);" transform="matrix(1, 0, 0, 1, -5.684341886080802e-14, -1.4210854715202004e-14)"/><path d="M 1030.899976 629.599976 A 5.3 5.3 0 0 1 1025.599976 634.899976 A 5.3 5.3 0 0 1 1020.299975 629.599976 A 5.3 5.3 0 0 1 1025.599976 624.299975 A 5.3 5.3 0 0 1 1030.899976 629.599976 Z" class="st8" style="opacity: 0.2; fill: rgb(247, 247, 255);" transform="matrix(1, 0, 0, 1, -5.684341886080802e-14, -1.4210854715202004e-14)"/><path d="M 1008.299988 593.700012 A 3.5 3.5 0 0 1 1004.799988 597.200012 A 3.5 3.5 0 0 1 1001.299988 593.700012 A 3.5 3.5 0 0 1 1004.799988 590.200012 A 3.5 3.5 0 0 1 1008.299988 593.700012 Z" class="st71" style="opacity: 0.1; fill: rgb(247, 247, 255);" transform="matrix(1, 0, 0, 1, -5.684341886080802e-14, -1.4210854715202004e-14)"/><path class="st3" d="M1240.6,556.4c-7.3,0-13.6,4.3-16.5,10.5c-29.9,7.4-52.1,34.4-52.1,66.6h19.1c0-22.5,15-41.4,35.5-47.5&#10;&#9;&#9;&#9;c3.3,4,8.3,6.6,13.9,6.6c10,0,18.1-8.1,18.1-18.1S1250.6,556.4,1240.6,556.4z" style="opacity: 0.9; fill: rgb(247, 247, 255);" transform="matrix(1, 0, 0, 1, -5.684341886080802e-14, -1.4210854715202004e-14)"/><defs>
			<filter id="Adobe_OpacityMaskFilter_30_" filterUnits="userSpaceOnUse" x="1172" y="572.1" width="137.2" height="130.1">
				<feFlood style="flood-color:white;flood-opacity:1" result="back"/>
				<feBlend in="SourceGraphic" in2="back" mode="normal"/>
			</filter>
		</defs><mask maskUnits="userSpaceOnUse" x="1172" y="572.1" width="137.2" height="130.1" id="SVGID_46_">
			<g class="st73" style="filter: url('#Adobe_OpacityMaskFilter_30_');">
				<defs>
					<filter id="Adobe_OpacityMaskFilter_31_" filterUnits="userSpaceOnUse" x="1172" y="572.1" width="137.2" height="130.1">
						<feFlood style="flood-color:white;flood-opacity:1" result="back"/>
						<feBlend in="SourceGraphic" in2="back" mode="normal"/>
					</filter>
				</defs>
				<mask maskUnits="userSpaceOnUse" x="1172" y="572.1" width="137.2" height="130.1" id="SVGID_46_">
					<g class="st74" style="filter: url('#Adobe_OpacityMaskFilter_31_');">
					</g>
				</mask>
				<linearGradient id="SVGID_47_" gradientUnits="userSpaceOnUse" x1="1199.3062" y1="637.1365" x2="1315.7664" y2="637.1365">
					<stop offset="0" style="stop-color:#E6E6E6"/>
					<stop offset="1" style="stop-color:#000000"/>
				</linearGradient>
				<path class="st75" d="M1271.2,572.1c0.1,0.8,0.1,1.6,0.1,2.4c0,6.2-1.8,11.9-5,16.7c14.3,8.7,23.8,24.4,23.8,42.3&#10;&#9;&#9;&#9;&#9;&#9;c0,27.3-22.1,49.5-49.5,49.5s-49.5-22.1-49.5-49.5H1172c0,37.9,30.7,68.6,68.6,68.6s68.6-30.7,68.6-68.6&#10;&#9;&#9;&#9;&#9;&#9;C1309.2,606.6,1293.7,583.3,1271.2,572.1z" style="mask: url('#SVGID_46_'); fill: url('#SVGID_47_');"/>
			</g>
		</mask><linearGradient id="SVGID_48_" gradientUnits="userSpaceOnUse" x1="1199.3062" y1="637.1365" x2="1315.7664" y2="637.1365">
			<stop offset="0" style="stop-color:#414143"/>
			<stop offset="1" style="stop-color:#414143"/>
		</linearGradient><path class="st76" d="M1271.2,572.1c0.1,0.8,0.1,1.6,0.1,2.4c0,6.2-1.8,11.9-5,16.7c14.3,8.7,23.8,24.4,23.8,42.3&#10;&#9;&#9;&#9;c0,27.3-22.1,49.5-49.5,49.5s-49.5-22.1-49.5-49.5H1172c0,37.9,30.7,68.6,68.6,68.6s68.6-30.7,68.6-68.6&#10;&#9;&#9;&#9;C1309.2,606.6,1293.7,583.3,1271.2,572.1z" style="fill: rgb(247, 247, 255);" transform="matrix(1, 0, 0, 1, -5.684341886080802e-14, -1.4210854715202004e-14)"/>
</svg>